<?xml version="1.0" encoding="utf-8"?>
<!-- Generator: Adobe Illustrator 23.0.4, SVG Export Plug-In . SVG Version: 6.00 Build 0)  -->
<svg version="1.1" id="图层_1" xmlns="http://www.w3.org/2000/svg" xmlns:xlink="http://www.w3.org/1999/xlink" x="0px" y="0px"
	 viewBox="0 0 41.8 7.6" style="enable-background:new 0 0 41.8 7.6;" xml:space="preserve">
<style type="text/css">
	.st0{fill:#777777;}
	.st1{fill-rule:evenodd;clip-rule:evenodd;fill:#F0863D;}
</style>
<g>
	<path class="st0" d="M40.2,0.2l-1.7,4.9l-1.7-4.9c0-0.1-0.1-0.1-0.2-0.1h-1.4c-0.1,0-0.2,0.1-0.2,0.3l2.6,7.1
		c0,0.1,0.1,0.1,0.2,0.1H39c0.1,0,0.1,0,0.2-0.1l2.6-7.1c0-0.1,0-0.3-0.2-0.3L40.2,0.2C40.3,0,40.2,0.1,40.2,0.2z"/>
	<path class="st0" d="M25.7,0.2v4.3l-2.5-4.4C23.2,0,23.1,0,23,0h-1.5c-0.1,0-0.2,0.1-0.2,0.2v7.1c0,0.1,0.1,0.2,0.2,0.2h1.3
		c0.1,0,0.2-0.1,0.2-0.2V3l2.5,4.4c0,0.1,0.1,0.1,0.2,0.1h1.5c0.1,0,0.2-0.1,0.2-0.2V0.2c0-0.1-0.1-0.2-0.2-0.2h-1.3
		C25.8,0,25.7,0.1,25.7,0.2z"/>
	<path class="st0" d="M11.5,0.2v2.7H8.7V0.2C8.7,0.1,8.6,0,8.5,0H7.2C7.1,0,7,0.1,7,0.2v7.1c0,0.1,0.1,0.2,0.2,0.2h1.3
		c0.1,0,0.2-0.1,0.2-0.2V4.5h2.8v2.8c0,0.1,0.1,0.2,0.2,0.2H13c0.1,0,0.2-0.1,0.2-0.2V0.2C13.2,0.1,13.1,0,13,0h-1.3
		C11.6,0,11.5,0.1,11.5,0.2z"/>
	<path class="st0" d="M0.5,0.5C0.2,0.9,0,1.4,0,2.1v3.4C0,6.2,0.2,6.7,0.5,7S1.3,7.5,2,7.5c1,0,2.2,0,3.7,0c0.1,0,0.2-0.1,0.2-0.2
		V6.2C5.9,6.1,5.8,6,5.7,6C5,6,2.8,6,2.7,6c0,0-0.7,0-0.8-0.1C1.7,5.8,1.7,5.7,1.7,5.5V2.1c0-0.4,0.2-0.6,0.6-0.6h3.4
		c0.1,0,0.2-0.1,0.2-0.2V0.2C5.9,0.1,5.8,0,5.7,0H2.1C1.4,0,0.8,0.2,0.5,0.5"/>
	<path class="st0" d="M14.8,0.5c-0.3,0.3-0.5,0.9-0.5,1.6v3.4c0,0.7,0.2,1.2,0.5,1.5s0.8,0.5,1.5,0.5c1,0,2.2,0,3.7,0
		c0.1,0,0.2-0.1,0.2-0.2V6.2C20.2,6.1,20.1,6,20,6c-0.7,0-2.9,0-3,0c0,0-0.7,0-0.8-0.1C16.1,5.8,16,5.7,16,5.5V2.1
		c0-0.4,0.2-0.6,0.6-0.6H20c0.1,0,0.2-0.1,0.2-0.2V0.2C20.2,0.1,20.1,0,20,0h-3.6C15.7,0,15.2,0.2,14.8,0.5"/>
	<g>
		<path class="st1" d="M33.4,0.6c-0.2-0.3-0.5-0.6-1-0.6l0,0l0,0c-0.4,0-0.8,0.2-1,0.6l-2.9,6.8H29c0.4,0,1.2-0.5,1.2-0.5
			c0.6-0.4,1.4-0.6,2.2-0.6l0,0l0,0c0.8,0,1.6,0.2,2.2,0.6c0,0,0.8,0.5,1.2,0.5h0.5L33.4,0.6z M33.5,4.7l-0.4,0.6l-0.6,0.8l-0.6-0.8
			l-0.5-0.6c-0.2-0.3-0.4-0.6-0.4-1c0-0.8,0.6-1.5,1.5-1.5l0,0l0,0c0.8,0,1.5,0.7,1.5,1.5C33.9,4.1,33.8,4.4,33.5,4.7z"/>
		<path class="st1" d="M32.5,3.1L32.5,3.1L32.5,3.1c-0.3,0-0.6,0.3-0.6,0.6s0.3,0.6,0.6,0.6l0,0l0,0c0.3,0,0.6-0.3,0.6-0.6
			C33.1,3.3,32.8,3.1,32.5,3.1z"/>
	</g>
</g>
</svg>
