<svg width="226" height="56" xmlns="http://www.w3.org/2000/svg" viewBox="0 0 226 56"><defs><linearGradient x1="17.385%" y1="13.305%" x2="84.588%" y2="85.731%" id="a"><stop stop-color="#FFF" offset="0%"/><stop stop-color="#656565" offset="100%"/></linearGradient></defs><g fill="none" fill-rule="evenodd"><path d="M80.783 35.51c-1.562 0-2.913-.569-3.947-1.6-1.477-1.476-1.456-3.141-1.456-6.028 0-2.886-.02-4.55 1.456-6.027 1.034-1.032 2.385-1.601 3.947-1.601 1.877 0 3.08.674 4.199 1.77l-1.52 1.538c-.78-.78-1.435-1.264-2.68-1.264-.886 0-1.688.337-2.215.906-.74.801-.887 1.664-.887 4.678 0 3.014.148 3.878.887 4.678.527.569 1.33.906 2.216.906 1.244 0 1.898-.485 2.68-1.264l1.519 1.538c-1.119 1.096-2.322 1.77-4.2 1.77zM95.3 30.538h6.161v-2.002H95.3zM121.276 35.384l-1.034-3.014h-5.93l-1.034 3.014h-2.427l5.508-15.004h1.835l5.509 15.004h-2.427zm-3.946-11.611l-2.343 6.658h4.622l-2.279-6.658zM137.63 35.51c-2.258 0-3.883-.527-5.318-1.98l1.52-1.497c1.097 1.096 2.3 1.433 3.84 1.433 1.963 0 3.102-.843 3.102-2.297 0-.653-.19-1.2-.59-1.559-.38-.358-.76-.506-1.647-.632l-1.772-.253c-1.224-.17-2.195-.59-2.849-1.2-.739-.696-1.098-1.645-1.098-2.867 0-2.613 1.9-4.404 5.023-4.404 1.984 0 3.377.506 4.664 1.707l-1.457 1.433c-.928-.886-2.004-1.16-3.27-1.16-1.773 0-2.743 1.012-2.743 2.34 0 .548.168 1.032.57 1.391.379.337.991.59 1.688.695l1.71.253c1.391.21 2.173.548 2.805 1.117.823.716 1.225 1.79 1.225 3.076 0 2.76-2.259 4.404-5.403 4.404M158.984 22.424v12.96h-2.278v-12.96h-4.137V20.38h10.552v2.044zM181.816 35.384l-3.165-6.321h-2.85v6.32h-2.278V20.38h5.825c2.849 0 4.663 1.834 4.663 4.383 0 2.15-1.308 3.52-2.996 3.983l3.461 6.638h-2.66zm-2.637-12.96h-3.377v4.7h3.377c1.52 0 2.553-.865 2.553-2.34 0-1.474-1.034-2.36-2.553-2.36zM203.783 35.384l-1.034-3.014h-5.93l-1.033 3.014h-2.427l5.507-15.004h1.837l5.507 15.004h-2.427zm-3.946-11.611l-2.343 6.658h4.622l-2.279-6.658zM216.148 35.384V20.38h2.28v12.96h7.238v2.044zM162.47 45.585l-.344-1.003h-1.974l-.344 1.003H159l1.834-4.995h.611l1.834 4.995h-.808zm-1.313-3.866l-.78 2.218h1.539l-.76-2.218zM165.119 45.585V40.59h3.197v.68h-2.438v1.46h2.08v.673h-2.08v1.502h2.438v.68zM173.247 45.585l-1.054-2.105h-.948v2.105h-.76V40.59h1.94c.949 0 1.553.61 1.553 1.459 0 .716-.436 1.172-.998 1.326l1.152 2.21h-.885zm-.878-4.315h-1.124v1.565h1.124c.506 0 .85-.288.85-.779 0-.491-.344-.786-.85-.786zM179.156 45.094a1.808 1.808 0 0 1-1.321.534c-.535 0-.97-.19-1.315-.534-.49-.491-.484-1.046-.484-2.006 0-.962-.007-1.516.484-2.008.345-.342.78-.532 1.315-.532.534 0 .976.19 1.321.532.492.492.477 1.046.477 2.008 0 .96.015 1.515-.477 2.006m-.576-3.557a1.02 1.02 0 0 0-.745-.31c-.295 0-.57.12-.745.31-.246.266-.295.548-.295 1.55 0 1.004.049 1.284.295 1.551.176.19.45.308.745.308.296 0 .57-.118.745-.308.245-.267.294-.547.294-1.55 0-1.003-.049-1.285-.294-1.55M183.216 45.628c-.752 0-1.293-.176-1.771-.66l.506-.499c.365.366.765.478 1.279.478.653 0 1.033-.28 1.033-.764 0-.218-.063-.4-.197-.52-.127-.12-.253-.169-.549-.21l-.59-.085c-.407-.056-.73-.196-.948-.4-.246-.23-.365-.547-.365-.954 0-.87.632-1.466 1.672-1.466.66 0 1.124.168 1.552.568l-.484.477c-.31-.295-.668-.385-1.09-.385-.589 0-.912.336-.912.778 0 .182.056.343.188.463.127.113.332.196.563.232l.57.084c.463.07.723.182.934.372.274.238.407.596.407 1.024 0 .92-.751 1.467-1.798 1.467M189.06 43.62h-1.137v1.965h-.76V40.59h1.897c.977 0 1.602.646 1.602 1.516 0 .869-.625 1.515-1.602 1.515m-.042-2.35h-1.095v1.662h1.095c.527 0 .886-.301.886-.827 0-.527-.359-.836-.886-.836M195.234 45.585l-.344-1.003h-1.975l-.343 1.003h-.809l1.835-4.995h.61l1.835 4.995h-.809zm-1.313-3.866l-.78 2.218h1.539l-.759-2.218zM199.428 45.628c-.52 0-.97-.19-1.314-.534-.49-.49-.484-1.046-.484-2.006 0-.962-.007-1.516.484-2.008a1.819 1.819 0 0 1 1.314-.532c.626 0 1.026.224 1.398.59l-.505.51c-.26-.258-.479-.42-.893-.42-.295 0-.562.113-.738.302-.245.267-.295.555-.295 1.558 0 1.003.05 1.29.295 1.557.176.19.443.302.738.302.414 0 .633-.162.893-.42l.505.51c-.372.366-.772.59-1.398.59M202.975 45.585V40.59h3.197v.68h-2.437v1.46h2.079v.673h-2.079v1.502h2.437v.68zM211.156 45.585V40.59h.759v4.315h2.41v.68zM217.295 45.585c-.667 0-.977-.477-.977-.99V42.64h-.407v-.548h.407v-1.08h.718v1.08h.687v.548h-.687v1.922c0 .26.125.414.393.414h.294v.61h-.428zM221.81 45.585v-.379c-.266.323-.555.421-.942.421-.357 0-.674-.119-.87-.315-.358-.358-.4-.969-.4-1.509 0-.54.042-1.143.4-1.501.196-.196.506-.316.864-.316.38 0 .674.09.934.4V40.59h.717v4.995h-.702zm-.751-2.96c-.647 0-.745.547-.745 1.178 0 .632.098 1.186.745 1.186.646 0 .737-.554.737-1.186 0-.631-.091-1.179-.737-1.179z" fill="#1A1919"/><path d="M225.21 45.606a.516.516 0 0 1-.514-.512.51.51 0 0 1 .514-.505.509.509 0 1 1 0 1.017" fill="#9E9F9E"/><path d="M4.571 28.103c.002 6.629 2.687 12.614 7.035 16.958 4.352 4.343 10.343 7.026 16.982 7.026 6.636 0 12.626-2.683 16.98-7.026 4.347-4.344 7.032-10.329 7.032-16.958 0-6.63-2.685-12.613-7.033-16.958-4.353-4.343-10.343-7.024-16.98-7.025a23.948 23.948 0 0 0-16.98 7.025C7.257 15.49 4.572 21.473 4.57 28.103" fill="#1A1919"/><path d="M.778 28.103c.003 15.338 12.452 27.771 27.81 27.771 15.357 0 27.809-12.433 27.809-27.771 0-15.34-12.452-27.769-27.809-27.772C13.23.334.781 12.764.778 28.103M11.607 45.06C7.258 40.717 4.573 34.732 4.57 28.103c.002-6.63 2.687-12.613 7.036-16.958A23.948 23.948 0 0 1 28.588 4.12c6.636 0 12.626 2.683 16.98 7.025C49.914 15.49 52.6 21.474 52.6 28.103c0 6.629-2.685 12.614-7.033 16.957-4.353 4.344-10.343 7.027-16.979 7.027-6.639 0-12.63-2.683-16.981-7.027" fill="url(#a)"/><path d="M47.054 28.19c0-.332-.442-.841-.442-.841l-5.424-4.583s-.762-.383-1.527-.383h-1.294L26.335 9.459h-8.988l12.277 12.924h-4.69s-.176.025-.452.08l-5.031-6.129h-4.97l4.65 5.985 3.098.924c-.124.07-.244.143-.355.223-1.148.826-2.805 2.292-3.19 2.93-.38.635-.448 1.422-.448 1.792v.002c0 .37.067 1.154.448 1.794.385.635 2.042 2.1 3.19 2.928.11.08.23.152.354.222l-3.098.923-4.65 5.984h4.97l5.033-6.129c.275.056.452.08.452.08h4.692L17.347 46.92h8.988l12.033-12.926h1.293c.765 0 1.527-.38 1.527-.38l5.424-4.586s.442-.51.442-.837" fill="#FFFFFE"/><path fill="#9E9F9E" d="M24.042 23.783l1.209-.382-5.8-7.067H14.48l4.65 5.985zM37.155 23.033L24.261 9.459h-6.914l12.944 13.626zM30.16 28.19v-2.937l-5.928 2.072v.864h5.927v2.933l-5.927-2.07v-.862h-5.995c0 .37.067 1.154.447 1.794.384.635 2.042 2.1 3.19 2.928.11.08.23.152.354.222l1.814-.54 1.21.382-.77.936c.276.056.453.08.453.08H36.54L24.262 46.92h2.073l12.033-12.926h1.292c.766 0 1.528-.38 1.528-.38l5.424-4.586s.442-.51.442-.837H30.16z"/></g></svg>
