<svg xmlns="http://www.w3.org/2000/svg" width="200" height="200" viewBox="0 0 200 200">
  <g id="accuracy" transform="translate(0.286 -0.045)">
    <g id="Group_35" data-name="Group 35" transform="translate(-0.286 0.045)">
      <circle id="Ellipse_23" data-name="Ellipse 23" cx="100" cy="100" r="100" transform="translate(0 0)" fill="#368b85"/>
      <path id="target" d="M150.432,51.2a3.357,3.357,0,0,0-2.328.99L141.389,58.9a3.357,3.357,0,0,0-.99,2.38V73.314l-1.836,1.836a43.425,43.425,0,1,0,8.9,10.42,3.358,3.358,0,1,0-5.725,3.5,37.145,37.145,0,1,1-7.935-9.154l-4.767,4.767a30.019,30.019,0,1,0,8.708,11.174,3.361,3.361,0,1,0-6.119,2.781,23.67,23.67,0,1,1-7.39-9.161l-4.8,4.8a16.8,16.8,0,1,0,7.528,14,3.358,3.358,0,1,0-6.689,0,10.178,10.178,0,1,1-5.784-9.062l-6.682,6.682a3.364,3.364,0,1,0,4.755,4.761l8.911-8.912a3.357,3.357,0,0,0,1.174-1.174l8.321-8.321a3.357,3.357,0,0,0,1.174-1.174l8.682-8.682a3.366,3.366,0,0,0,.439-.439l3.889-3.889H157.2a3.358,3.358,0,0,0,2.354-.99l6.721-6.721a3.358,3.358,0,0,0,0-4.734l-6.341-6.348a3.357,3.357,0,0,0-.741-.748l-6.328-6.334a3.357,3.357,0,0,0-2.433-.99Zm.052,8.105,1.967,1.967-5.338,5.338V62.672Zm6.715,6.715,1.961,1.961-3.344,3.371h-3.948Z" transform="translate(-10.21 -9.755)" fill="#fff"/>
    </g>
  </g>
</svg>
