<svg xmlns="http://www.w3.org/2000/svg" width="180" height="180" viewBox="0 0 180 180">
  <g id="accuracy" transform="translate(0.286 -0.045)">
    <g id="Group_35" data-name="Group 35">
      <circle id="Ellipse_23" data-name="Ellipse 23" cx="90" cy="90" r="90" transform="translate(-0.286 0.045)" fill="#368b85"/>
      <path id="target" d="M142.043,51.2a3.022,3.022,0,0,0-2.1.891L133.9,58.131a3.021,3.021,0,0,0-.891,2.142V71.1l-1.652,1.652a39.083,39.083,0,1,0,8.009,9.378,3.022,3.022,0,1,0-5.152,3.146,33.43,33.43,0,1,1-7.141-8.239l-4.29,4.291a27.017,27.017,0,1,0,7.838,10.057,3.024,3.024,0,1,0-5.507,2.5,21.3,21.3,0,1,1-6.651-8.245l-4.32,4.32a15.118,15.118,0,1,0,6.775,12.6,3.022,3.022,0,1,0-6.02,0,9.16,9.16,0,1,1-5.205-8.156l-6.014,6.014a3.028,3.028,0,1,0,4.279,4.285l8.02-8.021a3.021,3.021,0,0,0,1.056-1.056l7.489-7.489a3.022,3.022,0,0,0,1.056-1.056l7.814-7.814a3.029,3.029,0,0,0,.4-.4l3.5-3.5h10.842a3.022,3.022,0,0,0,2.119-.891l6.049-6.049a3.022,3.022,0,0,0,0-4.261l-5.707-5.713a3.021,3.021,0,0,0-.667-.673l-5.7-5.7a3.022,3.022,0,0,0-2.19-.891Zm.047,7.294,1.771,1.771-4.8,4.8V61.524Zm6.043,6.043L149.9,66.3l-3.01,3.033h-3.553Z" transform="translate(-16.129 -13.854)" fill="#eef0f2"/>
    </g>
  </g>
</svg>
