<svg xmlns="http://www.w3.org/2000/svg" width="180" height="180" viewBox="0 0 180 180">
  <g id="camera" transform="translate(0.012 0.405)">
    <circle id="Ellipse_28" data-name="Ellipse 28" cx="90" cy="90" r="90" transform="translate(-0.012 -0.405)" fill="#ff8882"/>
    <g id="agile-iteration" transform="translate(46.862 47.784)">
      <path id="Path_69" data-name="Path 69" d="M86.119,72.59h0c0-.27.135-.27.135-.4h0c0-.135,0-.135-.135-.27v-.135a.29.29,0,0,0-.27-.27v-.135l-.135-.135-6.469-5.391a1.338,1.338,0,1,0-1.752,2.022l3.774,3.1H57.008A32.367,32.367,0,0,0,50.27,9.382l4.178-2.965a1.425,1.425,0,0,0,.27-1.887,1.425,1.425,0,0,0-1.887-.27L45.822,9.112h0a.47.47,0,0,0-.135.27l-.135.135c0,.135-.135.135-.135.27v.135h0v.539a.471.471,0,0,0,.135.27.132.132,0,0,0,.135.135l5.391,6.6a1.664,1.664,0,0,0,1.078.539,1.916,1.916,0,0,0,.809-.27,1.291,1.291,0,0,0,.135-1.887l-3.235-4.043a29.786,29.786,0,0,1-5.66,59.03h-2.83A29.766,29.766,0,0,1,38.949,11.4a1.282,1.282,0,0,0-.135-2.561,32.346,32.346,0,0,0-9.973,61.995H1.348A1.351,1.351,0,0,0,0,72.185a1.273,1.273,0,0,0,1.348,1.348H81.941l-3.774,3.774a1.3,1.3,0,0,0,0,1.887,1.3,1.3,0,0,0,1.887,0l5.8-6.065A1.022,1.022,0,0,0,86.119,72.59Z" transform="translate(0 0)" fill="#eef0f2"/>
      <path id="Path_70" data-name="Path 70" d="M35.547,49.293A13.747,13.747,0,1,0,21.8,35.547,13.8,13.8,0,0,0,35.547,49.293Zm0-24.933A11.186,11.186,0,1,1,24.361,35.547,11.158,11.158,0,0,1,35.547,24.361Z" transform="translate(7.58 6.18)" fill="#eef0f2"/>
      <path id="Path_71" data-name="Path 71" d="M17.5,37.042A19.542,19.542,0,1,0,37.042,17.5,19.556,19.556,0,0,0,17.5,37.042ZM37.042,20.061A16.981,16.981,0,1,1,20.061,37.042,17,17,0,0,1,37.042,20.061Z" transform="translate(6.085 4.685)" fill="#eef0f2"/>
      <path id="Path_72" data-name="Path 72" d="M30.365,37.7a1.223,1.223,0,0,0,.943.4,1.456,1.456,0,0,0,.943-.4l7.008-7.008A1.334,1.334,0,1,0,37.373,28.8l-6.2,6.2-1.482-1.482A1.334,1.334,0,0,0,27.8,35.408Z" transform="translate(9.527 8.475)" fill="#eef0f2"/>
    </g>
  </g>
</svg>
