<svg xmlns="http://www.w3.org/2000/svg" width="200" height="200" viewBox="0 0 200 200">
  <g id="battery" transform="translate(-0.045 -0.045)">
    <circle id="Ellipse_24" data-name="Ellipse 24" cx="100" cy="100" r="100" transform="translate(0.045 0.045)" fill="#44e878"/>
    <path id="battery-2" data-name="battery" d="M98.033,42.38a5.053,5.053,0,0,1-5.054-5.054V27.217a5.054,5.054,0,1,1,10.109,0V37.326a5.053,5.053,0,0,1-5.054,5.054ZM77.815,57.544H12.109A10.12,10.12,0,0,1,2,47.435V17.109A10.12,10.12,0,0,1,12.109,7H77.815A10.12,10.12,0,0,1,87.924,17.109V47.435A10.12,10.12,0,0,1,77.815,57.544Z" transform="translate(47.045 68.045)" fill="#fff"/>
  </g>
</svg>
