<svg xmlns="http://www.w3.org/2000/svg" width="200" height="200" viewBox="0 0 200 200">
  <g id="camera" transform="translate(0.489 0.882)">
    <circle id="Ellipse_28" data-name="Ellipse 28" cx="100" cy="100" r="100" transform="translate(-0.489 -0.882)" fill="#ff8882"/>
    <g id="agile-iteration" transform="translate(51.945 57.472)">
      <path id="Path_69" data-name="Path 69" d="M95.459,80.026h0c0-.3.149-.3.149-.448h0c0-.149,0-.149-.149-.3V79.13a.321.321,0,0,0-.3-.3v-.149l-.149-.149L87.84,72.556A1.483,1.483,0,1,0,85.9,74.8l4.183,3.436H63.191a35.877,35.877,0,0,0-7.469-68.27l4.631-3.287a1.58,1.58,0,0,0,.3-2.091,1.58,1.58,0,0,0-2.091-.3L50.792,9.664h0a.522.522,0,0,0-.149.3l-.149.149c0,.149-.149.149-.149.3v.149h0v.6a.522.522,0,0,0,.149.3.146.146,0,0,0,.149.149l5.976,7.32a1.844,1.844,0,0,0,1.2.6,2.123,2.123,0,0,0,.9-.3,1.431,1.431,0,0,0,.149-2.091l-3.585-4.482A33.017,33.017,0,0,1,49,78.084H45.862A32.994,32.994,0,0,1,43.173,12.2a1.421,1.421,0,0,0-.149-2.838A35.854,35.854,0,0,0,31.969,78.084H1.494A1.5,1.5,0,0,0,0,79.578a1.411,1.411,0,0,0,1.494,1.494H90.828l-4.183,4.183a1.444,1.444,0,0,0,0,2.091,1.444,1.444,0,0,0,2.091,0l6.424-6.722A1.133,1.133,0,0,0,95.459,80.026Z" transform="translate(0 -4.026)" fill="#fff"/>
      <path id="Path_70" data-name="Path 70" d="M37.038,52.275A15.238,15.238,0,1,0,21.8,37.038,15.3,15.3,0,0,0,37.038,52.275Zm0-27.637a12.4,12.4,0,1,1-12.4,12.4A12.369,12.369,0,0,1,37.038,24.638Z" transform="translate(10.767 4.753)" fill="#fff"/>
      <path id="Path_71" data-name="Path 71" d="M17.5,39.161A21.661,21.661,0,1,0,39.161,17.5,21.677,21.677,0,0,0,17.5,39.161ZM39.161,20.338A18.823,18.823,0,1,1,20.338,39.161,18.84,18.84,0,0,1,39.161,20.338Z" transform="translate(8.643 2.629)" fill="#fff"/>
      <path id="Path_72" data-name="Path 72" d="M30.687,38.708a1.356,1.356,0,0,0,1.046.448,1.614,1.614,0,0,0,1.046-.448l7.768-7.768a1.479,1.479,0,1,0-2.091-2.091L31.583,35.72,29.94,34.077a1.479,1.479,0,0,0-2.091,2.091Z" transform="translate(13.532 8.012)" fill="#fff"/>
    </g>
  </g>
</svg>
