<svg xmlns="http://www.w3.org/2000/svg" width="200" height="200" viewBox="0 0 200 200">
  <g id="camera" transform="translate(0.012 0.405)">
    <circle id="Ellipse_28" data-name="Ellipse 28" cx="100" cy="100" r="100" transform="translate(-0.012 -0.405)" fill="#ffc947"/>
    <g id="camera-2" data-name="camera" transform="translate(49.469 49.515)">
      <circle id="Ellipse_5" data-name="Ellipse 5" cx="13.243" cy="13.243" r="13.243" transform="translate(36.419 36.419)" fill="#fff"/>
      <path id="Path_8" data-name="Path 8" d="M32.97,4,25.4,12.277H12.277A8.275,8.275,0,0,0,4,20.554V70.217a8.275,8.275,0,0,0,8.277,8.277H78.494a8.275,8.275,0,0,0,8.277-8.277V20.554a8.275,8.275,0,0,0-8.277-8.277H65.375L57.8,4ZM45.386,66.079A20.693,20.693,0,1,1,66.079,45.386,20.7,20.7,0,0,1,45.386,66.079Z" transform="translate(4.277 4.277)" fill="#fff"/>
      <path id="Path_9" data-name="Path 9" d="M0,0H99.326V99.326H0Z" fill="none"/>
    </g>
  </g>
</svg>
