<svg xmlns="http://www.w3.org/2000/svg" width="200" height="200" viewBox="0 0 200 200">
  <g id="connected" transform="translate(-0.471 -0.478)">
    <circle id="Ellipse_20" data-name="Ellipse 20" cx="100" cy="100" r="100" transform="translate(0.471 0.478)" fill="#011b52"/>
    <path id="connection" d="M86.906,76.573,75.574,66.757a18.4,18.4,0,0,0,1.112-6.377,18.806,18.806,0,0,0-2.538-9.458l14.426-14.9a13.106,13.106,0,0,0,16.7-4.281A14.075,14.075,0,0,0,104,14.051a13.056,13.056,0,0,0-17.129-1.7,14.008,14.008,0,0,0-4.522,17.111L67.787,44.509a17.308,17.308,0,0,0-17.763,0l-6.952-6.914a18.715,18.715,0,0,0-4.507-23.8,17.409,17.409,0,0,0-23.475,1.6,18.761,18.761,0,0,0-1.425,24.2A17.45,17.45,0,0,0,36.78,44.115l6.952,6.807a18.753,18.753,0,0,0-.174,18.665l-6.952,7.165A17.422,17.422,0,0,0,13.6,81.582a18.722,18.722,0,0,0,1.744,24.134,17.373,17.373,0,0,0,23.45,1.264,18.686,18.686,0,0,0,4.177-23.815l6.709-6.914a17.408,17.408,0,0,0,20.753-1.791l11.228,9.673a13.874,13.874,0,0,0,6.9,16.2,13.072,13.072,0,0,0,16.655-4.262,14.038,14.038,0,0,0-1.256-17.639,13.022,13.022,0,0,0-17.08-1.71Zm7.578-57.321a4.443,4.443,0,0,1,4.221,2.764,4.689,4.689,0,0,1-.938,5.062,4.353,4.353,0,0,1-4.912.967,4.6,4.6,0,0,1-2.682-4.35,4.524,4.524,0,0,1,4.31-4.586ZM27.6,37.451A9.178,9.178,0,0,1,27.7,19.11a9.031,9.031,0,0,1,8.945,9.027,9.319,9.319,0,0,1-2.605,6.63A8.763,8.763,0,0,1,27.6,37.451Zm0,64.2a9.176,9.176,0,0,1,.279-18.341,9.175,9.175,0,0,1-.279,18.341ZM58.888,69.408a8.9,8.9,0,0,1-8.234-5.695A9.376,9.376,0,0,1,52.647,53.7a8.7,8.7,0,0,1,9.745-1.9,9.187,9.187,0,0,1,5.4,8.575,9.038,9.038,0,0,1-8.9,9.171Zm35.6,23.215a4.588,4.588,0,1,1,4.45-4.586A4.519,4.519,0,0,1,94.484,92.623Z" transform="translate(40.292 39.813)" fill="#fff"/>
  </g>
</svg>
