<svg xmlns="http://www.w3.org/2000/svg" width="180" height="180" viewBox="0 0 180 180">
  <g id="connected" transform="translate(-0.471 -0.478)">
    <circle id="Ellipse_20" data-name="Ellipse 20" cx="90" cy="90" r="90" transform="translate(0.471 0.478)" fill="#011b52"/>
    <path id="connection" d="M80.262,69.012l-10.354-8.7a15.881,15.881,0,0,0,1.016-5.654,16.294,16.294,0,0,0-2.319-8.385L81.787,33.057A12.2,12.2,0,1,0,76.1,27.245L62.793,40.585a16.23,16.23,0,0,0-16.23,0l-6.352-6.13a16.262,16.262,0,1,0-5.749,5.781l6.352,6.035a16.2,16.2,0,0,0-.159,16.548L34.3,69.171a16.23,16.23,0,1,0,5.812,5.685l6.13-6.13a16.358,16.358,0,0,0,8.385,2.319,16.135,16.135,0,0,0,10.577-3.907l10.259,8.576a12.165,12.165,0,1,0,4.764-6.575Zm6.924-50.819a4,4,0,1,1,0-.127ZM26.076,34.328a8.131,8.131,0,1,1,5.878-2.381,8.131,8.131,0,0,1-5.878,2.381Zm0,56.918a8.131,8.131,0,1,1,8.258-8,8.131,8.131,0,0,1-8.258,8ZM54.662,62.66a8.068,8.068,0,1,1,0,.127ZM87.186,83.242a4.066,4.066,0,1,1,4.066-4.066A4.066,4.066,0,0,1,87.186,83.242Z" transform="translate(34.665 35.563)" fill="#eef0f2"/>
  </g>
</svg>
