<svg xmlns="http://www.w3.org/2000/svg" width="200" height="200" viewBox="0 0 200 200">
  <g id="dynamic" transform="translate(-0.141 0.454)">
    <circle id="Ellipse_15" data-name="Ellipse 15" cx="100" cy="100" r="100" transform="translate(0.141 -0.454)" fill="#0d21a1"/>
    <path id="dynamic-parcel-distribution" d="M44.538.257,4.173,22.275l44.8,26.057a1.613,1.613,0,0,1,.867,1.221V87.937a1.246,1.246,0,0,1-.529.935l-2.672,1.49a1.687,1.687,0,0,1-1.626-.081L42.63,88.962a1.375,1.375,0,0,1-.645-1.157V53.842c0-.6-.649-.884-1.084-1.135L2,30.065V75.481a3.664,3.664,0,0,0,1.78,2.634l40.412,23.837c1.293.764,2.07.636,3.859-.26L87.986,78.119a3.463,3.463,0,0,0,1.84-2.711V30.057L63.035,45.715a1.492,1.492,0,0,1-1.3.068l-2.425-1.4a1.819,1.819,0,0,1-.931-1.417l-.051-2.839a1.511,1.511,0,0,1,.649-1.2L87.64,22.245,47.283.265A3.739,3.739,0,0,0,44.538.257Z" transform="translate(54.141 48.546)" fill="#fff"/>
  </g>
</svg>
