<svg xmlns="http://www.w3.org/2000/svg" width="180" height="180" viewBox="0 0 180 180">
  <g id="dynamic" transform="translate(-0.141 0.454)">
    <circle id="Ellipse_15" data-name="Ellipse 15" cx="90" cy="90" r="90" transform="translate(0.14 -0.454)" fill="#0d21a1"/>
    <path id="dynamic-parcel-distribution" d="M41.266.237,4.006,20.561,45.36,44.614a1.489,1.489,0,0,1,.8,1.127V81.173a1.15,1.15,0,0,1-.489.863L43.2,83.411a1.557,1.557,0,0,1-1.5-.075l-2.2-1.218a1.27,1.27,0,0,1-.595-1.068V49.7c0-.552-.6-.816-1-1.048L2,27.753V69.675a3.382,3.382,0,0,0,1.643,2.431l37.3,22c1.194.705,1.911.587,3.562-.24L81.371,72.11a3.2,3.2,0,0,0,1.7-2.5V27.745L58.34,42.2a1.377,1.377,0,0,1-1.2.063L54.9,40.969a1.679,1.679,0,0,1-.859-1.308L54,37.04a1.4,1.4,0,0,1,.6-1.107l26.456-15.4L43.8.245A3.452,3.452,0,0,0,41.266.237Z" transform="translate(47.132 43.141)" fill="#eef0f2"/>
  </g>
</svg>
