<svg xmlns="http://www.w3.org/2000/svg" width="185" height="185" viewBox="0 0 185 185">
  <g id="echo-sounder" transform="translate(0.051 0.051)">
    <circle id="Ellipse_15" data-name="Ellipse 15" cx="92.5" cy="92.5" r="92.5" transform="translate(-0.051 -0.051)" fill="#eec643"/>
    <path id="soundwave" d="M3.915,27.234A2.915,2.915,0,0,0,1,30.149V59.3a2.915,2.915,0,0,0,5.83,0V30.149A2.915,2.915,0,0,0,3.915,27.234ZM15.574,12.66a2.915,2.915,0,0,0-2.915,2.915v58.3a2.915,2.915,0,1,0,5.83,0v-58.3A2.915,2.915,0,0,0,15.574,12.66ZM50.553,27.234a2.915,2.915,0,0,0-2.915,2.915V59.3a2.915,2.915,0,0,0,5.83,0V30.149A2.915,2.915,0,0,0,50.553,27.234ZM38.894,12.66a2.915,2.915,0,0,0-2.915,2.915v58.3a2.915,2.915,0,0,0,5.83,0v-58.3A2.915,2.915,0,0,0,38.894,12.66ZM27.234,1a2.915,2.915,0,0,0-2.915,2.915V85.532a2.915,2.915,0,0,0,5.83,0V3.915A2.915,2.915,0,0,0,27.234,1Zm58.3,26.234a2.915,2.915,0,0,0-2.915,2.915V59.3a2.915,2.915,0,0,0,5.83,0V30.149A2.915,2.915,0,0,0,85.532,27.234ZM73.872,12.66a2.915,2.915,0,0,0-2.915,2.915v58.3a2.915,2.915,0,0,0,5.83,0v-58.3A2.915,2.915,0,0,0,73.872,12.66ZM62.213,1A2.915,2.915,0,0,0,59.3,3.915V85.532a2.915,2.915,0,0,0,5.83,0V3.915A2.915,2.915,0,0,0,62.213,1Z" transform="translate(48.32 48.32)" fill="#eef0f2"/>
  </g>
</svg>
