<svg xmlns="http://www.w3.org/2000/svg" width="200" height="200" viewBox="0 0 200 200">
  <g id="echo-sounder" transform="translate(0.051 0.051)">
    <circle id="Ellipse_15" data-name="Ellipse 15" cx="100" cy="100" r="100" transform="translate(-0.051 -0.051)" fill="#eec643"/>
    <path id="soundwave" d="M4.135,29.219A3.135,3.135,0,0,0,1,32.355V63.71a3.135,3.135,0,0,0,6.271,0V32.355A3.135,3.135,0,0,0,4.135,29.219ZM16.677,13.542a3.135,3.135,0,0,0-3.135,3.135v62.71a3.135,3.135,0,1,0,6.271,0V16.677A3.135,3.135,0,0,0,16.677,13.542ZM54.3,29.219a3.135,3.135,0,0,0-3.135,3.135V63.71a3.135,3.135,0,0,0,6.271,0V32.355A3.135,3.135,0,0,0,54.3,29.219ZM41.761,13.542a3.135,3.135,0,0,0-3.135,3.135v62.71a3.135,3.135,0,0,0,6.271,0V16.677A3.135,3.135,0,0,0,41.761,13.542ZM29.219,1a3.135,3.135,0,0,0-3.135,3.135V91.929a3.135,3.135,0,0,0,6.271,0V4.135A3.135,3.135,0,0,0,29.219,1Zm62.71,28.219a3.135,3.135,0,0,0-3.135,3.135V63.71a3.135,3.135,0,1,0,6.271,0V32.355A3.135,3.135,0,0,0,91.929,29.219ZM79.387,13.542a3.135,3.135,0,0,0-3.135,3.135v62.71a3.135,3.135,0,1,0,6.271,0V16.677A3.135,3.135,0,0,0,79.387,13.542ZM66.845,1A3.135,3.135,0,0,0,63.71,4.135V91.929a3.135,3.135,0,0,0,6.271,0V4.135A3.135,3.135,0,0,0,66.845,1Z" transform="translate(51.949 51.949)" fill="#fff"/>
  </g>
</svg>
