<svg xmlns="http://www.w3.org/2000/svg" width="200" height="200" viewBox="0 0 200 200">
  <g id="innovative" transform="translate(0.434 0.051)">
    <circle id="Ellipse_16" data-name="Ellipse 16" cx="100" cy="100" r="100" transform="translate(-0.434 -0.051)" fill="#fb9300"/>
    <g id="innovation" transform="translate(47.566 47.949)">
      <path id="Path_67" data-name="Path 67" d="M104.189,47.509l-9.2-3.043a42.627,42.627,0,0,0-1.539-5.76l6.463-7.247-.631-1.3a52.116,52.116,0,0,0-3.763-6.5l-.81-1.192-9.463,1.97A43.791,43.791,0,0,0,81,20.191l1.968-9.463-1.192-.81A51.84,51.84,0,0,0,75.27,6.155l-1.3-.627L66.73,11.991a42.971,42.971,0,0,0-5.76-1.539l-3.043-9.2-1.437-.106a52.329,52.329,0,0,0-7.534,0l-1.437.1-3.043,9.206a43.056,43.056,0,0,0-5.76,1.539L31.466,5.528l-1.3.631a52.114,52.114,0,0,0-6.5,3.763l-1.19.81,1.97,9.463A43.791,43.791,0,0,0,20.2,24.437l-9.461-1.97-.81,1.192a51.84,51.84,0,0,0-3.763,6.506l-.627,1.3L12,38.706a42.97,42.97,0,0,0-1.539,5.76l-9.2,3.043-.106,1.437C1.06,50.194,1,51.444,1,52.714s.06,2.519.151,3.767l.1,1.437,9.2,3.043A42.627,42.627,0,0,0,12,66.721L5.534,73.969l.631,1.3a52.116,52.116,0,0,0,3.763,6.5l.81,1.192,9.463-1.97a43.791,43.791,0,0,0,4.241,4.243L22.475,94.7l1.192.81a51.844,51.844,0,0,0,6.506,3.763l1.3.627,7.245-6.459a42.974,42.974,0,0,0,5.76,1.539l3.043,9.2,1.437.1c1.246.088,2.5.149,3.765.149s2.519-.06,3.767-.151l1.437-.1,3.043-9.2a42.626,42.626,0,0,0,5.761-1.539L73.977,99.9l1.3-.631a52.115,52.115,0,0,0,6.5-3.763l1.192-.81L81,85.233a43.79,43.79,0,0,0,4.243-4.241l9.463,1.968.81-1.192a51.841,51.841,0,0,0,3.763-6.506l.627-1.3-6.463-7.243a43.057,43.057,0,0,0,1.539-5.761l9.2-3.043.1-1.437c.093-1.248.153-2.5.153-3.767s-.06-2.519-.151-3.767Zm-4.108,7.226L91.17,57.681l-.211,1.291a38.44,38.44,0,0,1-1.993,7.463l-.461,1.22,6.245,7.008c-.618,1.185-1.3,2.351-2.017,3.485L83.58,76.243l-.828,1.013a39.255,39.255,0,0,1-5.493,5.491l-1.013.828,1.907,9.153q-1.7,1.08-3.485,2.019L67.661,88.5l-1.222.465a38.5,38.5,0,0,1-7.461,1.991l-1.291.211-2.946,8.911c-1.338.067-2.707.067-4.045,0L47.75,91.164l-1.291-.211A38.3,38.3,0,0,1,39,88.96L37.776,88.5l-7.008,6.248q-1.785-.933-3.485-2.017l1.905-9.153-1.013-.828a39.255,39.255,0,0,1-5.491-5.493l-.828-1.013L12.7,78.148q-1.081-1.7-2.019-3.485l6.25-7.008-.465-1.222a38.5,38.5,0,0,1-1.991-7.461l-.211-1.291L5.355,54.735q-.095-2.02.006-4.043l8.911-2.946.211-1.291a38.3,38.3,0,0,1,1.993-7.461l.463-1.222-6.248-7.008c.619-1.185,1.3-2.351,2.017-3.485l9.153,1.905.828-1.013a39.255,39.255,0,0,1,5.493-5.491l1.013-.828L27.29,12.7q1.7-1.081,3.485-2.019l7.008,6.248L39,16.467a38.591,38.591,0,0,1,7.463-1.993l1.291-.211L50.7,5.352q2.021-.1,4.045,0l2.946,8.911,1.291.211a38.3,38.3,0,0,1,7.461,1.993l1.222.463,7.008-6.248c1.185.619,2.351,1.3,3.485,2.017l-1.905,9.153,1.013.828a39.254,39.254,0,0,1,5.491,5.493l.828,1.013,9.153-1.907q1.08,1.7,2.019,3.485l-6.25,7.008.465,1.222a38.5,38.5,0,0,1,1.991,7.461l.211,1.291,8.911,2.946q.095,2.02-.006,4.043Z" transform="translate(-1 -1.007)" fill="#fff"/>
      <path id="Path_68" data-name="Path 68" d="M35.923,11.006A21.823,21.823,0,0,0,15.012,31.861a21.443,21.443,0,0,0,7.431,16.958A15.5,15.5,0,0,1,27.93,60.564V71.339H34.4v4.31h4.31v-4.31H45.17V60.417a15.745,15.745,0,0,1,5.6-11.7A21.541,21.541,0,0,0,35.923,11.006ZM40.86,67.029H32.24v-4.31h8.62Zm7.069-21.551a20.349,20.349,0,0,0-6.946,12.93H38.705V37.75l5.834-5.834-3.047-3.047L36.55,33.811l-4.942-4.942-3.047,3.047L34.4,37.75V58.409H32.132a19.9,19.9,0,0,0-6.87-12.849,17.159,17.159,0,0,1-5.944-13.566A17.452,17.452,0,0,1,36.044,15.316,17.237,17.237,0,0,1,53.791,32.548a17.206,17.206,0,0,1-5.862,12.93Z" transform="translate(15.171 10.538)" fill="#fff"/>
    </g>
  </g>
</svg>
