<svg xmlns="http://www.w3.org/2000/svg" width="180" height="180" viewBox="0 0 180 180">
  <g id="innovative" transform="translate(0.434 0.051)">
    <circle id="Ellipse_16" data-name="Ellipse 16" cx="90" cy="90" r="90" transform="translate(-0.434 -0.051)" fill="#fb9300"/>
    <g id="innovation" transform="translate(43.403 43.136)">
      <path id="Path_67" data-name="Path 67" d="M93.87,42.859,85.586,40.12A38.365,38.365,0,0,0,84.2,34.936l5.817-6.523-.568-1.17a46.9,46.9,0,0,0-3.386-5.852l-.729-1.073-8.517,1.773A39.413,39.413,0,0,0,73,18.273l1.771-8.517L73.7,9.027a46.656,46.656,0,0,0-5.856-3.386l-1.168-.564-6.519,5.817a38.674,38.674,0,0,0-5.184-1.385L52.234,1.224l-1.294-.1a47.1,47.1,0,0,0-6.781,0l-1.294.093L40.127,9.508a38.751,38.751,0,0,0-5.184,1.385L28.42,5.076l-1.17.568A46.9,46.9,0,0,0,21.4,9.031l-1.071.729L22.1,18.277a39.412,39.412,0,0,0-3.819,3.817L9.767,20.321l-.729,1.073a46.656,46.656,0,0,0-3.386,5.856l-.564,1.168L10.9,34.936A38.673,38.673,0,0,0,9.515,40.12L1.231,42.859l-.1,1.294C1.054,45.276,1,46.4,1,47.543s.054,2.267.136,3.39l.093,1.294,8.284,2.739A38.364,38.364,0,0,0,10.9,60.15L5.081,66.673l.568,1.17a46.9,46.9,0,0,0,3.386,5.852l.729,1.073,8.517-1.773A39.412,39.412,0,0,0,22.1,76.813l-1.771,8.517,1.073.729a46.659,46.659,0,0,0,5.856,3.386l1.168.564L34.944,84.2a38.675,38.675,0,0,0,5.184,1.385l2.739,8.284,1.294.093c1.121.08,2.246.134,3.388.134s2.267-.054,3.39-.136l1.294-.093,2.739-8.284a38.363,38.363,0,0,0,5.184-1.385l6.523,5.817,1.17-.568A46.9,46.9,0,0,0,73.7,86.057l1.073-.729L73,76.811a39.412,39.412,0,0,0,3.819-3.817l8.517,1.771.729-1.073a46.656,46.656,0,0,0,3.386-5.856l.564-1.168L84.2,60.15a38.751,38.751,0,0,0,1.385-5.184l8.284-2.739.093-1.294c.083-1.123.138-2.248.138-3.39s-.054-2.267-.136-3.39Zm-3.7,6.5-8.02,2.651-.19,1.162a34.6,34.6,0,0,1-1.794,6.717l-.415,1.1L85.375,67.3c-.557,1.067-1.166,2.116-1.815,3.136l-8.237-1.715-.745.912a35.33,35.33,0,0,1-4.944,4.942l-.912.745,1.717,8.237q-1.527.972-3.136,1.817l-6.307-5.625-1.1.419a34.653,34.653,0,0,1-6.715,1.792l-1.162.19-2.651,8.02c-1.2.06-2.436.06-3.641,0l-2.651-8.02-1.162-.19A34.466,34.466,0,0,1,35.2,80.164l-1.1-.417L27.791,85.37q-1.606-.84-3.136-1.815l1.715-8.237-.912-.745a35.329,35.329,0,0,1-4.942-4.944l-.745-.912-8.237,1.717Q10.561,68.9,9.716,67.3l5.625-6.307-.419-1.1a34.652,34.652,0,0,1-1.792-6.715l-.19-1.162L4.92,49.362q-.085-1.818.006-3.639l8.02-2.651.19-1.162A34.467,34.467,0,0,1,14.93,35.2l.417-1.1L9.724,27.788c.557-1.067,1.166-2.116,1.815-3.136l8.237,1.715.745-.912a35.329,35.329,0,0,1,4.944-4.942l.912-.745-1.717-8.237q1.53-.973,3.136-1.817L34.1,15.336l1.1-.415a34.732,34.732,0,0,1,6.717-1.794l1.162-.19,2.651-8.02q1.819-.09,3.641,0l2.651,8.02,1.162.19A34.466,34.466,0,0,1,59.9,14.921l1.1.417,6.307-5.623c1.067.557,2.116,1.166,3.136,1.815l-1.715,8.237.912.745a35.329,35.329,0,0,1,4.942,4.944l.745.912,8.237-1.717q.972,1.527,1.817,3.136L79.758,34.1l.419,1.1a34.654,34.654,0,0,1,1.792,6.715l.19,1.162,8.02,2.651q.085,1.818-.006,3.639Z" transform="translate(-1 -1.007)" fill="#eef0f2"/>
      <path id="Path_68" data-name="Path 68" d="M33.831,11.006a19.64,19.64,0,0,0-18.82,18.769A19.3,19.3,0,0,0,21.7,45.037a13.949,13.949,0,0,1,4.938,10.571v9.7h5.819v3.879h3.879V65.306h5.819v-9.83a14.17,14.17,0,0,1,5.041-10.528A19.387,19.387,0,0,0,33.831,11.006Zm4.444,50.421H30.516V57.547h7.758Zm6.362-19.4a18.314,18.314,0,0,0-6.251,11.637h-2.05V35.076l5.25-5.25-2.743-2.743L34.4,31.53l-4.447-4.447-2.743,2.743,5.25,5.25V53.668H30.419A17.909,17.909,0,0,0,24.236,42.1,15.443,15.443,0,0,1,18.886,29.9a15.707,15.707,0,0,1,15.053-15.01A15.513,15.513,0,0,1,49.912,30.394a15.485,15.485,0,0,1-5.276,11.637Z" transform="translate(12.154 8.384)" fill="#eef0f2"/>
    </g>
  </g>
</svg>
