<svg xmlns="http://www.w3.org/2000/svg" width="180" height="180" viewBox="0 0 180 180">
  <g id="memory" transform="translate(-0.182 -0.478)">
    <circle id="Ellipse_19" data-name="Ellipse 19" cx="90" cy="90" r="90" transform="translate(0.183 0.478)" fill="#232323"/>
    <path id="Icon_material-memory" data-name="Icon material-memory" d="M64.777,34.972H34.638V65.443H64.777ZM54.731,55.286H44.684V45.129H54.731ZM94.915,45.129V34.972H84.869V24.814A10.132,10.132,0,0,0,74.823,14.657H64.777V4.5H54.731V14.657H44.684V4.5H34.638V14.657H24.592A10.132,10.132,0,0,0,14.546,24.814V34.972H4.5V45.129H14.546V55.286H4.5V65.443H14.546V75.6A10.132,10.132,0,0,0,24.592,85.758H34.638V95.915H44.684V85.758H54.731V95.915H64.777V85.758H74.823A10.132,10.132,0,0,0,84.869,75.6V65.443H94.915V55.286H84.869V45.129ZM74.823,75.6H24.592V24.814H74.823Z" transform="translate(40.264 39.77)" fill="#e4e4e4"/>
  </g>
</svg>
