<svg xmlns="http://www.w3.org/2000/svg" width="200" height="200" viewBox="0 0 200 200">
  <g id="memory" transform="translate(-0.41 -0.705)">
    <circle id="Ellipse_19" data-name="Ellipse 19" cx="100" cy="100" r="100" transform="translate(0.41 0.705)" fill="#232323"/>
    <path id="Icon_material-memory" data-name="Icon material-memory" d="M71.218,38.565H37.859V72.63H71.218ZM60.1,61.275H48.979V49.92H60.1ZM104.578,49.92V38.565H93.458V27.21a11.272,11.272,0,0,0-11.12-11.355H71.218V4.5H60.1V15.855H48.979V4.5H37.859V15.855H26.739A11.272,11.272,0,0,0,15.62,27.21V38.565H4.5V49.92H15.62V61.275H4.5V72.63H15.62V83.985a11.272,11.272,0,0,0,11.12,11.355h11.12V106.7h11.12V95.341H60.1V106.7h11.12V95.341h11.12a11.272,11.272,0,0,0,11.12-11.355V72.63h11.12V61.275H93.458V49.92ZM82.338,83.985h-55.6V27.21h55.6Z" transform="translate(45.522 44.441)" fill="#fff"/>
  </g>
</svg>
