<svg xmlns="http://www.w3.org/2000/svg" width="200" height="200" viewBox="0 0 200 200">
  <g id="performance" transform="translate(0.248 0.454)">
    <circle id="Ellipse_15" data-name="Ellipse 15" cx="100" cy="100" r="100" transform="translate(-0.248 -0.454)" fill="#082032"/>
    <path id="performance-2" data-name="performance" d="M46.062.5A45.562,45.562,0,1,0,91.625,46.062,45.6,45.6,0,0,0,46.062.5ZM79.073,50.472h3.439a35.7,35.7,0,0,1-.617,3.616H56.468a11.5,11.5,0,0,0-6-6V34.745a4.409,4.409,0,1,0-8.819,0V48.091a11.494,11.494,0,0,0-6,6H10.23a35.692,35.692,0,0,1-.617-3.616h3.439a4.409,4.409,0,1,0,0-8.819H9.612A36.468,36.468,0,0,1,17.2,23.428l2.41,2.41a4.384,4.384,0,0,0,3.116,1.293,4.409,4.409,0,0,0,3.116-7.525l-2.41-2.41A36.468,36.468,0,0,1,41.653,9.612v3.439a4.409,4.409,0,1,0,8.819,0V9.612A36.468,36.468,0,0,1,68.7,17.2l-2.41,2.41A4.409,4.409,0,0,0,69.4,27.132a4.384,4.384,0,0,0,3.116-1.293l2.41-2.41a36.468,36.468,0,0,1,7.584,18.225H79.073a4.409,4.409,0,1,0,0,8.819Z" transform="translate(53.252 53.046)" fill="#fff"/>
  </g>
</svg>
