<svg xmlns="http://www.w3.org/2000/svg" width="180" height="180" viewBox="0 0 180 180">
  <g id="performance" transform="translate(0.248 0.454)">
    <circle id="Ellipse_15" data-name="Ellipse 15" cx="90" cy="90" r="90" transform="translate(-0.248 -0.454)" fill="#082032"/>
    <path id="performance-2" data-name="performance" d="M42.558.5A42.058,42.058,0,1,0,84.615,42.558,42.094,42.094,0,0,0,42.558.5ZM73.029,46.628H76.2a32.954,32.954,0,0,1-.57,3.337H52.163a10.61,10.61,0,0,0-5.535-5.535V32.111a4.07,4.07,0,1,0-8.14,0V44.43a10.61,10.61,0,0,0-5.535,5.535H9.481a32.946,32.946,0,0,1-.57-3.337h3.175a4.07,4.07,0,1,0,0-8.14H8.911a33.663,33.663,0,0,1,7-16.823l2.225,2.225a4.046,4.046,0,0,0,2.876,1.194,4.07,4.07,0,0,0,2.876-6.946l-2.225-2.225a33.663,33.663,0,0,1,16.823-7v3.175a4.07,4.07,0,1,0,8.14,0V8.911a33.663,33.663,0,0,1,16.823,7l-2.225,2.225A4.07,4.07,0,0,0,64.1,25.083a4.046,4.046,0,0,0,2.876-1.194L69.2,21.664a33.663,33.663,0,0,1,7,16.823H73.029a4.07,4.07,0,0,0,0,8.14Z" transform="translate(47.318 47.318)" fill="#eef0f2"/>
  </g>
</svg>
