<svg xmlns="http://www.w3.org/2000/svg" width="200" height="200" viewBox="0 0 200 200">
  <g id="precise" transform="translate(0.07 -0.449)">
    <circle id="Ellipse_15" data-name="Ellipse 15" cx="100" cy="100" r="100" transform="translate(-0.07 0.449)" fill="#113cfc"/>
    <path id="Icon_metro-target" data-name="Icon metro-target" d="M102.359,45.585H92.524A40.636,40.636,0,0,0,58.7,11.763V1.928H46.228v9.835A40.636,40.636,0,0,0,12.406,45.585H2.571V58.059h9.835A40.636,40.636,0,0,0,46.228,91.881v9.835H58.7V91.881A40.637,40.637,0,0,0,92.524,58.059h9.835V45.585Zm-22.528,0H70.109A18.761,18.761,0,0,0,58.7,34.178V24.456A28.158,28.158,0,0,1,79.831,45.585ZM52.465,58.059A6.237,6.237,0,1,1,58.7,51.822,6.237,6.237,0,0,1,52.465,58.059Zm-6.237-33.6v9.722A18.76,18.76,0,0,0,34.821,45.585H25.1A28.158,28.158,0,0,1,46.228,24.456ZM25.1,58.059h9.722A18.76,18.76,0,0,0,46.228,69.466v9.722A28.158,28.158,0,0,1,25.1,58.059ZM58.7,79.188V69.466A18.761,18.761,0,0,0,70.109,58.059h9.722A28.157,28.157,0,0,1,58.7,79.188Z" transform="translate(46.592 48.521)" fill="#fff"/>
  </g>
</svg>
