<svg xmlns="http://www.w3.org/2000/svg" width="185" height="185" viewBox="0 0 185 185">
  <g id="precise" transform="translate(-0.43 0.051)">
    <circle id="Ellipse_15" data-name="Ellipse 15" cx="92.5" cy="92.5" r="92.5" transform="translate(0.43 -0.051)" fill="#113cfc"/>
    <path id="Icon_metro-target" data-name="Icon metro-target" d="M95.106,42.412h-9.12A37.683,37.683,0,0,0,54.622,11.048V1.928H43.055v9.12A37.683,37.683,0,0,0,11.691,42.412H2.571V53.979h9.12A37.683,37.683,0,0,0,43.055,85.343v9.12H54.622v-9.12A37.683,37.683,0,0,0,85.986,53.979h9.12V42.412Zm-20.891,0H65.2A17.4,17.4,0,0,0,54.622,31.834V22.819A26.111,26.111,0,0,1,74.215,42.412ZM48.838,53.979A5.783,5.783,0,1,1,54.622,48.2,5.783,5.783,0,0,1,48.838,53.979Zm-5.783-31.16v9.015A17.4,17.4,0,0,0,32.477,42.412H23.461A26.111,26.111,0,0,1,43.055,22.819ZM23.461,53.979h9.015A17.4,17.4,0,0,0,43.055,64.557v9.015A26.111,26.111,0,0,1,23.461,53.979Zm31.16,19.593V64.557A17.4,17.4,0,0,0,65.2,53.979h9.015A26.111,26.111,0,0,1,54.622,73.573Z" transform="translate(43.05 43.693)" fill="#eef0f2"/>
  </g>
</svg>
