<svg xmlns="http://www.w3.org/2000/svg" width="200" height="200" viewBox="0 0 200 200">
  <g id="proven" transform="translate(0 0.248)">
    <circle id="Ellipse_15" data-name="Ellipse 15" cx="100" cy="100" r="100" transform="translate(0 -0.248)" fill="#346751"/>
    <path id="Icon_ionic-ios-checkmark-circle" data-name="Icon ionic-ios-checkmark-circle" d="M56.3,7.031A49.265,49.265,0,1,0,105.562,56.3,49.258,49.258,0,0,0,56.3,7.031ZM81.521,42.678,49.854,74.487h-.024a4.277,4.277,0,0,1-2.747,1.3,4.147,4.147,0,0,1-2.771-1.35L31.048,61.176a.944.944,0,0,1,0-1.35l4.216-4.216a.916.916,0,0,1,1.326,0L47.107,66.126,76,37.017a.935.935,0,0,1,.663-.284h0a.86.86,0,0,1,.663.284L81.474,41.3A.934.934,0,0,1,81.521,42.678Z" transform="translate(43.969 43.721)" fill="#fff"/>
  </g>
</svg>
