<svg xmlns="http://www.w3.org/2000/svg" width="180" height="180" viewBox="0 0 180 180">
  <g id="range" transform="translate(0.405 0.405)">
    <circle id="Ellipse_27" data-name="Ellipse 27" cx="90" cy="90" r="90" transform="translate(-0.405 -0.405)" fill="#25afb9"/>
    <path id="plane" d="M50.741,60.129c.081-1.4,1.687-.914,1.687-.914l12.6,2.56,26.011,9.9c0-4.877-.772-5.385-1.91-6.238L52.021,38.813s-1-12.192-1-22.942c0-4.979-2.4-15.87-5.507-15.87s-5.507,11.054-5.507,15.87c0,10.2-1,22.942-1,22.942L1.91,65.433C.467,66.449,0,67,0,71.671l26.011-9.9,12.579-2.56s1.605-.488,1.687.914-.244,14.042,1.2,20.747c.183.894-.508.955-.975,1.5L29.953,89.045a3.893,3.893,0,0,0-.508,1.483l-.2,3.759L43.06,91.037l2.439,6.5,2.438-6.5,13.818,3.251-.2-3.759a3.438,3.438,0,0,0-.488-1.483L50.517,82.38c-.467-.549-1.158-.61-.975-1.5C50.944,74.171,50.66,61.531,50.741,60.129Z" transform="matrix(0.891, -0.454, 0.454, 0.891, 27.538, 66.473)" fill="#eef0f2"/>
  </g>
</svg>
