<svg xmlns="http://www.w3.org/2000/svg" width="200" height="200" viewBox="0 0 200 200">
  <g id="range" transform="translate(0.405 0.405)">
    <circle id="Ellipse_27" data-name="Ellipse 27" cx="100" cy="100" r="100" transform="translate(-0.405 -0.405)" fill="#25afb9"/>
    <path id="plane" d="M55.989,66.688c.094-1.559,1.87-1.022,1.87-1.022L71.8,68.473l28.767,10.92c.015-5.422-.838-5.984-2.1-6.93l-41-29.478s-1.064-13.552-1.03-25.5c.016-5.535-2.6-17.636-6.047-17.627s-6.132,12.307-6.147,17.661c-.032,11.341-1.175,25.509-1.175,25.509L1.908,72.739c-1.6,1.134-2.12,1.746-2.135,6.942L28.6,68.6,42.538,65.71s1.779-.547,1.864,1.011-.314,15.611,1.262,23.062c.2.993-.565,1.063-1.085,1.675L32.882,98.9a4.362,4.362,0,0,0-.567,1.651l-.237,4.18,15.309-3.658,2.679,7.222,2.72-7.237,15.289,3.571-.213-4.179a3.816,3.816,0,0,0-.535-1.648L55.671,91.427c-.516-.608-1.28-.674-1.075-1.669C56.169,82.3,55.894,68.247,55.989,66.688Z" transform="matrix(0.891, -0.454, 0.454, 0.891, 31.487, 73.855)" fill="#fff"/>
  </g>
</svg>
