<svg xmlns="http://www.w3.org/2000/svg" width="180" height="180" viewBox="0 0 180 180">
  <g id="registration" transform="translate(-0.478 -0.478)">
    <circle id="Ellipse_21" data-name="Ellipse 21" cx="90" cy="90" r="90" transform="translate(0.478 0.478)" fill="#700b97"/>
    <path id="multitasking" d="M69.715,445.6A3.883,3.883,0,0,1,66,449.418H62.3V420.9c0-3.9-3.332-6.777-7.43-6.777H25.238V410.3c0-1.948,1.652-3.237,3.7-3.237H66c2.047,0,3.713,1.288,3.713,3.237ZM54.889,460.008a3.622,3.622,0,0,1-3.706,3.53H14.119a3.622,3.622,0,0,1-3.706-3.53v-35.3a3.619,3.619,0,0,1,3.706-3.53H51.183a3.619,3.619,0,0,1,3.706,3.53ZM69.7,400H25.245c-4.1,0-7.42,2.873-7.42,6.777v7.342H10.42c-4.1,0-7.42,2.873-7.42,6.777v42.337a7.5,7.5,0,0,0,7.42,7.363H54.872a7.507,7.507,0,0,0,7.43-7.363v-6.756h7.4a7.507,7.507,0,0,0,7.43-7.363V406.777c0-3.9-3.332-6.777-7.43-6.777Z" transform="translate(49.74 -344.847)" fill="#eef0f2" fill-rule="evenodd"/>
  </g>
</svg>
