<svg xmlns="http://www.w3.org/2000/svg" width="200" height="200" viewBox="0 0 200 200">
  <g id="registration" transform="translate(-0.478 -0.478)">
    <circle id="Ellipse_21" data-name="Ellipse 21" cx="100" cy="100" r="100" transform="translate(0.478 0.478)" fill="#700b97"/>
    <path id="multitasking" d="M77.5,450.915a4.335,4.335,0,0,1-4.147,4.269H69.22V423.335c0-4.359-3.721-7.568-8.3-7.568H27.833V411.5c0-2.176,1.845-3.615,4.131-3.615H73.351c2.286,0,4.147,1.439,4.147,3.615ZM60.943,467.009a4.044,4.044,0,0,1-4.139,3.942H15.416a4.044,4.044,0,0,1-4.139-3.942V427.592a4.042,4.042,0,0,1,4.139-3.942H56.8a4.042,4.042,0,0,1,4.139,3.942ZM77.478,400H27.841c-4.58,0-8.285,3.209-8.285,7.568v8.2h-8.27c-4.58,0-8.285,3.208-8.285,7.568v47.277a8.37,8.37,0,0,0,8.285,8.222H60.923a8.383,8.383,0,0,0,8.3-8.222v-7.544h8.258a8.383,8.383,0,0,0,8.3-8.222V407.568c0-4.359-3.721-7.568-8.3-7.568Z" transform="translate(55.343 -338.968)" fill="#fff" fill-rule="evenodd"/>
  </g>
</svg>
