<svg xmlns="http://www.w3.org/2000/svg" width="200" height="200" viewBox="0 0 200 200">
  <g id="secure" transform="translate(0 0.051)">
    <circle id="Ellipse_17" data-name="Ellipse 17" cx="100" cy="100" r="100" transform="translate(0 -0.051)" fill="#093e8a"/>
    <path id="Icon_ionic-ios-lock" data-name="Icon ionic-ios-lock" d="M75.2,38.2H69.337V26.9A23.471,23.471,0,0,0,22.4,26.59V38.2H16.529A9.755,9.755,0,0,0,6.75,47.869V94.3a9.755,9.755,0,0,0,9.779,9.672H75.2A9.755,9.755,0,0,0,84.983,94.3V47.869A9.755,9.755,0,0,0,75.2,38.2ZM49.289,68.374V85.011a3.483,3.483,0,0,1-3.252,3.482,3.41,3.41,0,0,1-3.594-3.385V68.374a7.725,7.725,0,0,1-4.376-7.665,7.832,7.832,0,0,1,15.622.7A7.709,7.709,0,0,1,49.289,68.374ZM62.491,38.2H29.242V26.59a16.213,16.213,0,0,1,4.89-11.607,16.656,16.656,0,0,1,23.47,0,16.213,16.213,0,0,1,4.89,11.607Z" transform="translate(54.25 46.575)" fill="#fff"/>
  </g>
</svg>
