<svg xmlns="http://www.w3.org/2000/svg" width="180" height="180" viewBox="0 0 180 180">
  <g id="secure" transform="translate(0 0.051)">
    <circle id="Ellipse_17" data-name="Ellipse 17" cx="90" cy="90" r="90" transform="translate(0 -0.051)" fill="#093e8a"/>
    <path id="Icon_ionic-ios-lock" data-name="Icon ionic-ios-lock" d="M68.359,34.715H63.078V24.551a21.124,21.124,0,0,0-42.246-.283V34.715H15.551a8.779,8.779,0,0,0-8.8,8.705V85.2a8.779,8.779,0,0,0,8.8,8.705H68.359a8.779,8.779,0,0,0,8.8-8.705V43.42A8.779,8.779,0,0,0,68.359,34.715ZM45.035,61.874V76.847a3.135,3.135,0,0,1-2.926,3.134,3.069,3.069,0,0,1-3.234-3.047V61.874a6.953,6.953,0,0,1-3.939-6.9A7.049,7.049,0,0,1,49,55.607,6.938,6.938,0,0,1,45.035,61.874Zm11.882-27.16H26.993V24.268a14.591,14.591,0,0,1,4.4-10.446,14.99,14.99,0,0,1,21.123,0,14.591,14.591,0,0,1,4.4,10.446Z" transform="translate(47.493 41.472)" fill="#e4e4e4"/>
  </g>
</svg>
