<svg xmlns="http://www.w3.org/2000/svg" width="180" height="180" viewBox="0 0 180 180">
  <g id="versatile" transform="translate(0.051 0.051)">
    <circle id="Ellipse_18" data-name="Ellipse 18" cx="90" cy="90" r="90" transform="translate(-0.051 -0.051)" fill="#47597e"/>
    <path id="Icon_awesome-tasks" data-name="Icon awesome-tasks" d="M25.216,5.321a2.167,2.167,0,0,0-3.07,0l-11.5,11.435-4.1-4a2.167,2.167,0,0,0-3.07,0L.638,15.6a2.167,2.167,0,0,0,0,3.07l8.6,8.561a2.308,2.308,0,0,0,3.181,0l2.816-2.821L28.27,11.371a2.184,2.184,0,0,0,.016-3.07Zm0,28.752a2.167,2.167,0,0,0-3.07,0l-11.5,11.509-4.1-3.992a2.167,2.167,0,0,0-3.07,0L.638,44.424a2.167,2.167,0,0,0,0,3.07l8.574,8.579a2.306,2.306,0,0,0,3.179,0l2.836-2.834L28.266,40.2a2.167,2.167,0,0,0,.016-3.052Zm-13.656,31.3a8.67,8.67,0,1,0,0,17.339,8.669,8.669,0,1,0,0-17.339Zm78.025,2.89H37.568a2.89,2.89,0,0,0-2.89,2.89v5.78a2.89,2.89,0,0,0,2.89,2.89H89.585a2.89,2.89,0,0,0,2.89-2.89v-5.78A2.89,2.89,0,0,0,89.585,68.265Zm0-57.8H37.568a2.89,2.89,0,0,0-2.89,2.89v5.78a2.89,2.89,0,0,0,2.89,2.89H89.585a2.89,2.89,0,0,0,2.89-2.89v-5.78A2.89,2.89,0,0,0,89.585,10.468Zm0,28.9H37.568a2.89,2.89,0,0,0-2.89,2.89v5.78a2.89,2.89,0,0,0,2.89,2.89H89.585a2.89,2.89,0,0,0,2.89-2.89v-5.78A2.89,2.89,0,0,0,89.585,39.366Z" transform="translate(44.319 45.855)" fill="#eef0f2"/>
  </g>
</svg>
