<svg xmlns="http://www.w3.org/2000/svg" width="200" height="200" viewBox="0 0 200 200">
  <g id="versatile" transform="translate(0.051 0.051)">
    <circle id="Ellipse_18" data-name="Ellipse 18" cx="100" cy="100" r="100" transform="translate(-0.051 -0.051)" fill="#47597e"/>
    <path id="Icon_awesome-tasks" data-name="Icon awesome-tasks" d="M28.017,5.391a2.408,2.408,0,0,0-3.412,0L11.826,18.1,7.271,13.658a2.408,2.408,0,0,0-3.412,0L.708,16.812a2.408,2.408,0,0,0,0,3.412l9.55,9.512a2.565,2.565,0,0,0,3.534,0L16.922,26.6,31.411,12.114A2.426,2.426,0,0,0,31.429,8.7Zm0,31.947a2.408,2.408,0,0,0-3.412,0L11.826,50.126,7.271,45.691a2.408,2.408,0,0,0-3.412,0L.708,48.839a2.408,2.408,0,0,0,0,3.412l9.526,9.532a2.563,2.563,0,0,0,3.532,0l3.151-3.149L31.407,44.141a2.408,2.408,0,0,0,.018-3.392ZM12.844,72.118a9.633,9.633,0,1,0,0,19.266,9.633,9.633,0,1,0,0-19.265Zm86.695,3.211h-57.8a3.211,3.211,0,0,0-3.211,3.211v6.422a3.211,3.211,0,0,0,3.211,3.211h57.8a3.211,3.211,0,0,0,3.211-3.211V78.54A3.211,3.211,0,0,0,99.538,75.329Zm0-64.218h-57.8a3.211,3.211,0,0,0-3.211,3.211v6.422a3.211,3.211,0,0,0,3.211,3.211h57.8a3.211,3.211,0,0,0,3.211-3.211V14.322A3.211,3.211,0,0,0,99.538,11.111Zm0,32.109h-57.8a3.211,3.211,0,0,0-3.211,3.211v6.422a3.211,3.211,0,0,0,3.211,3.211h57.8a3.211,3.211,0,0,0,3.211-3.211V46.431A3.211,3.211,0,0,0,99.538,43.22Z" transform="translate(48.949 52.266)" fill="#fff"/>
  </g>
</svg>
