<svg xmlns="http://www.w3.org/2000/svg" width="185" height="185" viewBox="0 0 185 185">
  <g id="weight" transform="translate(0 0.051)">
    <circle id="Ellipse_15" data-name="Ellipse 15" cx="92.5" cy="92.5" r="92.5" transform="translate(0 -0.051)" fill="#5c3d2e"/>
    <g id="weight-scale" transform="translate(53.019 43.155)">
      <path id="Path_65" data-name="Path 65" d="M80.619,41.316h3.049a27.735,27.735,0,0,0-7.06-17.009l-2.146,2.146a1.547,1.547,0,1,1-2.188-2.188l2.146-2.146a27.735,27.735,0,0,0-17.009-7.06v3.049a1.547,1.547,0,0,1-3.094,0V15.058a27.735,27.735,0,0,0-17.009,7.06l2.146,2.146a1.547,1.547,0,0,1-2.188,2.188l-2.146-2.146a27.735,27.735,0,0,0-7.06,17.009h3.049a1.547,1.547,0,1,1,0,3.094H28.058a27.735,27.735,0,0,0,7.06,17.009l2.146-2.146a1.547,1.547,0,1,1,2.188,2.188l-2.146,2.146a27.735,27.735,0,0,0,17.009,7.06V67.618a1.547,1.547,0,1,1,3.094,0v3.049a27.735,27.735,0,0,0,17.009-7.06l-2.146-2.146a1.547,1.547,0,0,1,2.188-2.188l2.146,2.146a27.735,27.735,0,0,0,7.06-17.009H80.619a1.547,1.547,0,1,1,0-3.094ZM67.788,33.126l-7.162,7.162A5.418,5.418,0,1,1,58.438,38.1L65.6,30.938a1.547,1.547,0,1,1,2.188,2.188Z" transform="translate(-16.407 -3.409)" fill="#eef0f2"/>
      <circle id="Ellipse_29" data-name="Ellipse 29" cx="2.321" cy="2.321" r="2.321" transform="translate(37.135 37.133)" fill="#eef0f2"/>
      <path id="Path_66" data-name="Path 66" d="M52.453,0a39.453,39.453,0,0,0-6.189,78.418v2.036A4.647,4.647,0,0,0,50.906,85.1h.005s.008,1.166.017,1.376a2.86,2.86,0,0,1-.574,2.346A6.056,6.056,0,0,0,49.2,95.708,6.122,6.122,0,0,0,54.4,99.019c.06,0,.121,0,.182,0a6.362,6.362,0,0,0,6.391-6.4,1.547,1.547,0,1,0-3.094,0,3.27,3.27,0,0,1-3.4,3.306,3.029,3.029,0,0,1-2.523-1.63,3.079,3.079,0,0,1,.7-3.41,5.809,5.809,0,0,0,1.364-4.54c-.007-.166-.014-1.25-.014-1.25a4.647,4.647,0,0,0,4.636-4.641V78.418A39.453,39.453,0,0,0,52.453,0Zm3.094,80.455A1.549,1.549,0,0,1,54,82H50.906a1.549,1.549,0,0,1-1.547-1.547v-1.68c1.022.08,2.052.133,3.094.133s2.072-.053,3.094-.133ZM52.453,70.4A30.944,30.944,0,1,1,83.4,39.454,30.944,30.944,0,0,1,52.453,70.4Z" transform="translate(-12.998 0)" fill="#eef0f2"/>
    </g>
  </g>
</svg>
