<svg xmlns="http://www.w3.org/2000/svg" width="200" height="200" viewBox="0 0 200 200">
  <g id="weight" transform="translate(0 0.051)">
    <circle id="Ellipse_15" data-name="Ellipse 15" cx="100" cy="100" r="100" transform="translate(0 -0.051)" fill="#5c3d2e"/>
    <g id="weight-scale" transform="translate(56 44.949)">
      <path id="Path_65" data-name="Path 65" d="M86.3,44.154H89.68a30.734,30.734,0,0,0-7.824-18.848l-2.378,2.378a1.714,1.714,0,1,1-2.424-2.424l2.378-2.378a30.733,30.733,0,0,0-18.848-7.823v3.379a1.714,1.714,0,0,1-3.429,0V15.058a30.733,30.733,0,0,0-18.848,7.823l2.378,2.378a1.714,1.714,0,1,1-2.424,2.424l-2.378-2.378a30.733,30.733,0,0,0-7.824,18.848h3.379a1.714,1.714,0,1,1,0,3.429H28.058a30.733,30.733,0,0,0,7.824,18.848l2.378-2.378a1.714,1.714,0,1,1,2.424,2.424l-2.378,2.378a30.734,30.734,0,0,0,18.848,7.823V73.3a1.714,1.714,0,1,1,3.429,0v3.379a30.734,30.734,0,0,0,18.848-7.823l-2.378-2.378a1.714,1.714,0,0,1,2.424-2.424l2.378,2.378A30.733,30.733,0,0,0,89.68,47.583H86.3a1.714,1.714,0,1,1,0-3.429ZM72.083,35.08l-7.936,7.936a6,6,0,1,1-2.424-2.424l7.936-7.936a1.714,1.714,0,1,1,2.424,2.424Z" transform="translate(-15.148 -2.15)" fill="#fff"/>
      <circle id="Ellipse_29" data-name="Ellipse 29" cx="2.572" cy="2.572" r="2.572" transform="translate(41.15 41.148)" fill="#fff"/>
      <path id="Path_66" data-name="Path 66" d="M56.719,0a43.718,43.718,0,0,0-6.858,86.9v2.257A5.149,5.149,0,0,0,55,94.3h.006s.008,1.292.018,1.524a3.169,3.169,0,0,1-.636,2.6,6.71,6.71,0,0,0-1.276,7.636,6.784,6.784,0,0,0,5.754,3.668c.067,0,.134,0,.2,0a7.05,7.05,0,0,0,7.082-7.094,1.714,1.714,0,1,0-3.429,0,3.623,3.623,0,0,1-3.762,3.663,3.356,3.356,0,0,1-2.8-1.807,3.412,3.412,0,0,1,.776-3.779,6.437,6.437,0,0,0,1.511-5.03c-.008-.184-.015-1.385-.015-1.385a5.149,5.149,0,0,0,5.137-5.143V86.9A43.718,43.718,0,0,0,56.719,0Zm3.429,89.152a1.717,1.717,0,0,1-1.714,1.714H55a1.717,1.717,0,0,1-1.714-1.714V87.291c1.133.088,2.274.147,3.429.147s2.3-.059,3.429-.147ZM56.719,78.008a34.289,34.289,0,1,1,34.29-34.289,34.289,34.289,0,0,1-34.29,34.289Z" transform="translate(-12.998 0)" fill="#fff"/>
    </g>
  </g>
</svg>
